<svg xmlns="http://www.w3.org/2000/svg" viewBox="0 0 1200 700" role="img" aria-label="THE WEEPING FEN">
  <defs>
    <linearGradient id="sky" x1="0" y1="0" x2="0" y2="1"><stop stop-color="#152322"/><stop offset="1" stop-color="#36433a"/></linearGradient>
    <linearGradient id="mist" x1="0" y1="0" x2="1" y2="0"><stop stop-color="#d9d5c8" stop-opacity=".08"/><stop offset=".5" stop-color="#efe8d2" stop-opacity=".25"/><stop offset="1" stop-color="#d9d5c8" stop-opacity=".05"/></linearGradient>
    <filter id="blur"><feGaussianBlur stdDeviation="18"/></filter>
  </defs>
  <rect width="1200" height="700" fill="url(#sky)"/>
  <circle cx="905" cy="135" r="64" fill="#e8ddbd" opacity=".42"/>
  <path d="M0 430 L150 315 L275 405 L425 250 L575 395 L760 275 L910 405 L1050 300 L1200 405 L1200 700 L0 700Z" fill="#17211b" opacity=".92"/>
  <g fill="#0a100e"><rect x="520" y="240" width="14" height="210"/><rect x="590" y="200" width="12" height="250"/><rect x="650" y="270" width="10" height="180"/><path d="M480 330 C555 290 635 292 710 334 L690 365 C620 335 555 337 495 366Z"/></g><g stroke="#728b72" stroke-width="4" opacity=".7"><path d="M100 515 q20-85 25-155"/><path d="M145 525 q-5-95 12-170"/><path d="M1040 520 q-25-100-8-180"/></g>
  <path d="M0 500 C250 450 380 555 620 485 C830 425 985 530 1200 470 L1200 700 L0 700Z" fill="#07090b" opacity=".72"/>
  <rect x="-80" y="390" width="1360" height="80" rx="40" fill="url(#mist)" filter="url(#blur)"/>
  <g fill="#93a678" opacity=".7"><circle cx="110" cy="560" r="4"/><circle cx="205" cy="522" r="3"/><circle cx="1010" cy="544" r="4"/><circle cx="865" cy="510" r="3"/></g>
  <text x="54" y="625" fill="#ede4d1" font-family="Georgia,serif" font-size="42" letter-spacing="4">THE WEEPING FEN</text>
  <text x="57" y="659" fill="#b8aa91" font-family="system-ui,sans-serif" font-size="18" letter-spacing="7">MOURNREACH</text>
</svg>