<svg xmlns="http://www.w3.org/2000/svg" width="1200" height="800" viewBox="0 0 1200 800">
<defs>
  <linearGradient id="bg" x1="0" y1="0" x2="1" y2="1"><stop stop-color="#0d1115"/><stop offset="1" stop-color="#201a1d"/></linearGradient>
  <radialGradient id="glow"><stop stop-color="#a8b5c1" stop-opacity=".42"/><stop offset="1" stop-color="#a8b5c1" stop-opacity="0"/></radialGradient>
  <filter id="soft"><feGaussianBlur stdDeviation="18"/></filter>
</defs>
<rect width="100%" height="100%" fill="url(#bg)"/>
<circle cx="864" cy="192" r="224" fill="url(#glow)" filter="url(#soft)"/>

<text x="48" y="80" fill="#c9bda7" font-size="25" font-family="Georgia,serif">Saint's Teeth · forbidden calendars</text>
<path d="M0 610 Q180 535 330 590 T650 560 T980 600 T1200 545 V800 H0Z" fill="#11161a"/>

  <path d="M80 620 L290 220 L430 620 M340 620 L600 120 L815 620 M720 620 L970 250 L1140 620" fill="#171d23" stroke="#8f9eaa" stroke-width="5"/>
  <rect x="510" y="350" width="190" height="210" fill="#101418" stroke="#c0c9d1" stroke-width="5"/>
  <path d="M555 350 q50-105 100 0" fill="none" stroke="#c0c9d1" stroke-width="5"/>
  <circle cx="605" cy="255" r="38" fill="none" stroke="#c7b878" stroke-width="6"/>


<rect x="22" y="22" width="1156" height="756" rx="18" fill="none" stroke="#a8b5c1" stroke-opacity=".38" stroke-width="2"/>
<text x="48" y="736" fill="#e7dfcf" font-size="36" font-family="Georgia,serif" letter-spacing="2">THE NINTH CLOISTER</text>
</svg>