<svg xmlns="http://www.w3.org/2000/svg" width="800" height="1000" viewBox="0 0 800 1000">
<defs>
  <linearGradient id="bg" x1="0" y1="0" x2="1" y2="1"><stop stop-color="#0d1115"/><stop offset="1" stop-color="#201a1d"/></linearGradient>
  <radialGradient id="glow"><stop stop-color="#b58b5a" stop-opacity=".42"/><stop offset="1" stop-color="#b58b5a" stop-opacity="0"/></radialGradient>
  <filter id="soft"><feGaussianBlur stdDeviation="18"/></filter>
</defs>
<rect width="100%" height="100%" fill="url(#bg)"/>
<circle cx="576" cy="240" r="224" fill="url(#glow)" filter="url(#soft)"/>

<path d="M250 780 Q400 630 550 780 L600 920 H200Z" fill="#171a1e" stroke="#b58b5a" stroke-opacity=".55" stroke-width="4"/>
<ellipse cx="400" cy="390" rx="150" ry="185" fill="#252a30" stroke="#b58b5a" stroke-opacity=".6" stroke-width="4"/>
<path d="M275 340 Q400 125 525 340 Q495 255 400 210 Q305 255 275 340Z" fill="#111418"/>
<path d="M324 412 Q355 390 385 411" fill="none" stroke="#d7c7a8" stroke-width="8" stroke-linecap="round"/>
<path d="M415 411 Q445 390 476 412" fill="none" stroke="#d7c7a8" stroke-width="8" stroke-linecap="round"/>
<path d="M355 506 Q400 528 445 506" fill="none" stroke="#8c7561" stroke-width="6" stroke-linecap="round"/>
<g opacity=".9">
  <path d="M305 265 Q400 165 495 265" fill="none" stroke="#2b3137" stroke-width="50"/>
  <path d="M590 695 l75 110" stroke="#b58b5a" stroke-width="10"/>
  <path d="M610 665 l110 95" stroke="#4c5259" stroke-width="18"/>
  <circle cx="600" cy="690" r="36" fill="#111" stroke="#b58b5a" stroke-width="5"/>
  <path d="M584 690 l16-28 16 28-16 28z" fill="#7f6577"/>
</g>
<text x="48" y="82" fill="#c9bda7" font-size="24" font-family="Georgia,serif">the Unremembered · Blackglass courier</text>

<rect x="22" y="22" width="756" height="956" rx="18" fill="none" stroke="#b58b5a" stroke-opacity=".38" stroke-width="2"/>
<text x="48" y="936" fill="#e7dfcf" font-size="45" font-family="Georgia,serif" letter-spacing="2">ROOK VALE</text>
</svg>